<?xml version="1.0" encoding="UTF-8"?>
<!DOCTYPE svg PUBLIC "-//W3C//DTD SVG 1.1//EN" "http://www.w3.org/Graphics/SVG/1.1/DTD/svg11.dtd">
<svg xmlns="http://www.w3.org/2000/svg" version="1.1" width="860px" height="1370px" style="shape-rendering:geometricPrecision; text-rendering:geometricPrecision; image-rendering:optimizeQuality; fill-rule:evenodd; clip-rule:evenodd" xmlns:xlink="http://www.w3.org/1999/xlink">
<g><path style="opacity:1" fill="#90a4ad" d="M 495.5,544.5 C 494.833,543.167 494.167,543.167 493.5,544.5C 492.833,544.5 492.5,544.167 492.5,543.5C 492.167,542.167 491.833,542.167 491.5,543.5C 490.833,543.167 490.167,542.833 489.5,542.5C 483.55,539.368 477.216,537.035 470.5,535.5C 462.572,530.888 454.238,526.722 445.5,523C 438.331,518.645 431.331,514.145 424.5,509.5C 343.827,448.79 307.661,367.79 316,266.5C 330.414,173.441 379.58,105.941 463.5,64C 552.491,26.2003 637.491,33.5336 718.5,86C 795.004,142.518 831.837,218.684 829,314.5C 819.664,409.068 773.831,479.568 691.5,526C 628.59,557.566 563.257,563.732 495.5,544.5 Z"/></g>
<g><path style="opacity:1" fill="#fdeab3" d="M 367.5,268.5 C 368.913,265.781 369.58,262.781 369.5,259.5C 385.24,186.914 427.24,135.747 495.5,106C 506.196,101.937 517.196,98.77 528.5,96.5C 531.781,96.5797 534.781,95.913 537.5,94.5C 619.137,84.0875 685.637,110.754 737,174.5C 776.468,229.423 787.468,289.756 770,355.5C 744.639,430.859 693.472,478.692 616.5,499C 536.624,513.755 469.458,491.255 415,431.5C 376.072,384.16 360.239,329.826 367.5,268.5 Z"/></g>
<g><path style="opacity:1" fill="#d2ceb0" d="M 537.5,94.5 C 534.781,95.913 531.781,96.5797 528.5,96.5C 531.219,95.087 534.219,94.4203 537.5,94.5 Z"/></g>
<g><path style="opacity:1" fill="#fffdfd" d="M 561.5,194.5 C 615.54,193.736 652.04,218.402 671,268.5C 680.898,309.8 670.731,345.3 640.5,375C 608.477,401.008 572.81,407.341 533.5,394C 483.812,369.463 462.979,329.63 471,274.5C 481.26,236.324 505.093,211.158 542.5,199C 548.998,197.624 555.331,196.124 561.5,194.5 Z"/></g>
<g><path style="opacity:1" fill="#c5c6b0" d="M 369.5,259.5 C 369.58,262.781 368.913,265.781 367.5,268.5C 367.42,265.219 368.087,262.219 369.5,259.5 Z"/></g>
<g><path style="opacity:1" fill="#556f7b" d="M 424.5,509.5 C 431.331,514.145 438.331,518.645 445.5,523C 454.238,526.722 462.572,530.888 470.5,535.5C 418.157,583.175 365.491,630.508 312.5,677.5C 306.89,681.772 301.557,686.438 296.5,691.5C 293.831,703.171 291.165,714.838 288.5,726.5C 288.089,730.221 287.422,733.888 286.5,737.5C 284.837,739.438 284.171,741.772 284.5,744.5C 284.552,746.903 284.219,749.236 283.5,751.5C 281.837,753.438 281.171,755.772 281.5,758.5C 281.326,760.861 280.993,763.194 280.5,765.5C 278.837,767.438 278.171,769.772 278.5,772.5C 278.089,776.221 277.422,779.888 276.5,783.5C 274.837,785.438 274.171,787.772 274.5,790.5C 273.915,797.019 272.581,803.352 270.5,809.5C 276.223,810.696 281.89,810.362 287.5,808.5C 291.099,807.656 294.766,807.323 298.5,807.5C 304.051,807.473 309.384,806.806 314.5,805.5C 315.473,805.013 316.473,804.513 317.5,804C 334.423,787.245 351.089,770.411 367.5,753.5C 381.424,739.241 395.424,724.908 409.5,710.5C 429.294,690.538 448.961,670.372 468.5,650C 475.316,614.089 482.316,578.256 489.5,542.5C 490.167,542.833 490.833,543.167 491.5,543.5C 491.833,543.5 492.167,543.5 492.5,543.5C 492.5,544.167 492.833,544.5 493.5,544.5C 494.167,544.5 494.833,544.5 495.5,544.5C 498.865,546.462 502.532,547.962 506.5,549C 516.711,551.642 527.044,553.642 537.5,555C 538.059,555.725 538.392,556.558 538.5,557.5C 537.176,562.447 536.176,567.447 535.5,572.5C 533.777,574.78 533.111,577.447 533.5,580.5C 533.296,583.518 532.963,586.518 532.5,589.5C 530.374,593.445 529.374,597.778 529.5,602.5C 527.384,616.531 525.05,630.531 522.5,644.5C 520.777,646.78 520.111,649.447 520.5,652.5C 520.585,664.322 516.752,674.656 509,683.5C 462.374,730.627 415.874,777.961 369.5,825.5C 417.07,857.889 465.07,889.722 513.5,921C 520.272,925.259 524.939,931.093 527.5,938.5C 527.167,941.833 526.833,945.167 526.5,948.5C 524.566,953.948 521.233,958.448 516.5,962C 466.138,994.844 415.805,1027.68 365.5,1060.5C 360.576,1064.24 355.242,1067.4 349.5,1070C 341.555,1071.58 334.222,1070.25 327.5,1066C 323.761,1062.38 319.928,1058.88 316,1055.5C 316.152,1069.54 315.319,1083.2 313.5,1096.5C 313.667,1082.16 313.5,1067.83 313,1053.5C 253.667,1003.49 195.001,952.827 137,901.5C 135.93,893.919 136.596,886.586 139,879.5C 173.938,809.957 208.605,740.29 243,670.5C 254.354,659.313 266.187,648.647 278.5,638.5C 280.749,637.92 282.415,636.587 283.5,634.5C 330.177,592.491 377.177,550.824 424.5,509.5 Z M 367.5,753.5 C 351.089,770.411 334.423,787.245 317.5,804C 316.473,804.513 315.473,805.013 314.5,805.5C 308.931,805.376 303.598,806.043 298.5,807.5C 294.766,807.323 291.099,807.656 287.5,808.5C 281.828,808.76 276.161,809.093 270.5,809.5C 272.581,803.352 273.915,797.019 274.5,790.5C 275.612,788.401 276.279,786.067 276.5,783.5C 277.422,779.888 278.089,776.221 278.5,772.5C 279.612,770.401 280.279,768.067 280.5,765.5C 280.993,763.194 281.326,760.861 281.5,758.5C 282.612,756.401 283.279,754.067 283.5,751.5C 284.219,749.236 284.552,746.903 284.5,744.5C 285.612,742.401 286.279,740.067 286.5,737.5C 287.422,733.888 288.089,730.221 288.5,726.5C 289.265,726.077 290.098,725.743 291,725.5C 316.5,734 342,742.5 367.5,751C 368.598,751.77 368.598,752.603 367.5,753.5 Z M 323.5,859.5 C 352.947,878.063 382.28,896.896 411.5,916C 386.667,946.833 361.833,977.667 337,1008.5C 295.795,972.293 254.295,936.46 212.5,901C 249.538,887.046 286.538,873.213 323.5,859.5 Z"/></g>
<g><path style="opacity:1" fill="#8899a1" d="M 535.5,572.5 C 535.198,575.373 534.531,578.039 533.5,580.5C 533.111,577.447 533.777,574.78 535.5,572.5 Z"/></g>
<g><path style="opacity:1" fill="#8d9da5" d="M 532.5,589.5 C 531.863,594.035 530.863,598.368 529.5,602.5C 529.374,597.778 530.374,593.445 532.5,589.5 Z"/></g>
<g><path style="opacity:1" fill="#84969e" d="M 283.5,634.5 C 282.415,636.587 280.749,637.92 278.5,638.5C 279.585,636.413 281.251,635.08 283.5,634.5 Z"/></g>
<g><path style="opacity:1" fill="#9aa8af" d="M 522.5,644.5 C 522.198,647.373 521.531,650.039 520.5,652.5C 520.111,649.447 520.777,646.78 522.5,644.5 Z"/></g>
<g><path style="opacity:1" fill="#90a4ad" d="M 312.5,677.5 C 344.536,689.068 376.869,700.068 409.5,710.5C 395.424,724.908 381.424,739.241 367.5,753.5C 368.598,752.603 368.598,751.77 367.5,751C 342,742.5 316.5,734 291,725.5C 290.098,725.743 289.265,726.077 288.5,726.5C 291.165,714.838 293.831,703.171 296.5,691.5C 301.557,686.438 306.89,681.772 312.5,677.5 Z"/></g>
<g><path style="opacity:1" fill="#899aa3" d="M 286.5,737.5 C 286.279,740.067 285.612,742.401 284.5,744.5C 284.171,741.772 284.837,739.438 286.5,737.5 Z"/></g>
<g><path style="opacity:1" fill="#91a1a8" d="M 283.5,751.5 C 283.279,754.067 282.612,756.401 281.5,758.5C 281.171,755.772 281.837,753.438 283.5,751.5 Z"/></g>
<g><path style="opacity:1" fill="#95a5ac" d="M 280.5,765.5 C 280.279,768.067 279.612,770.401 278.5,772.5C 278.171,769.772 278.837,767.438 280.5,765.5 Z"/></g>
<g><path style="opacity:1" fill="#8b9ca4" d="M 276.5,783.5 C 276.279,786.067 275.612,788.401 274.5,790.5C 274.171,787.772 274.837,785.438 276.5,783.5 Z"/></g>
<g><path style="opacity:1" fill="#81949c" d="M 314.5,805.5 C 309.384,806.806 304.051,807.473 298.5,807.5C 303.598,806.043 308.931,805.376 314.5,805.5 Z"/></g>
<g><path style="opacity:1" fill="#7e919a" d="M 287.5,808.5 C 281.89,810.362 276.223,810.696 270.5,809.5C 276.161,809.093 281.828,808.76 287.5,808.5 Z"/></g>
<g><path style="opacity:1" fill="#8899a2" d="M 527.5,938.5 C 528.865,941.959 528.531,945.292 526.5,948.5C 526.833,945.167 527.167,941.833 527.5,938.5 Z"/></g>
<g><path style="opacity:1" fill="#465b65" d="M 365.5,1060.5 C 365.333,1072.17 365.5,1083.84 366,1095.5C 378.639,1097.31 386.805,1104.31 390.5,1116.5C 390.563,1121.2 390.229,1125.87 389.5,1130.5C 388.617,1133.7 386.95,1136.37 384.5,1138.5C 380.883,1142.32 376.549,1145.15 371.5,1147C 350.5,1147.67 329.5,1147.67 308.5,1147C 303.176,1145.48 298.843,1142.65 295.5,1138.5C 287.191,1128.92 286.358,1118.59 293,1107.5C 298.285,1100.78 305.118,1097.11 313.5,1096.5C 315.319,1083.2 316.152,1069.54 316,1055.5C 319.928,1058.88 323.761,1062.38 327.5,1066C 334.222,1070.25 341.555,1071.58 349.5,1070C 355.242,1067.4 360.576,1064.24 365.5,1060.5 Z"/></g>
<g><path style="opacity:1" fill="#7d8b92" d="M 390.5,1116.5 C 391.161,1118.13 391.494,1119.97 391.5,1122C 391.64,1125.15 390.973,1127.98 389.5,1130.5C 390.229,1125.87 390.563,1121.2 390.5,1116.5 Z"/></g>
<g><path style="opacity:1" fill="#90a4ad" d="M 295.5,1138.5 C 298.843,1142.65 303.176,1145.48 308.5,1147C 329.5,1147.67 350.5,1147.67 371.5,1147C 376.549,1145.15 380.883,1142.32 384.5,1138.5C 385.574,1140.28 387.24,1141.45 389.5,1142C 410.69,1149.24 432.356,1154.57 454.5,1158C 504.575,1165.75 554.908,1171.08 605.5,1174C 630.671,1179.51 645.171,1195.01 649,1220.5C 649.667,1230.83 649.667,1241.17 649,1251.5C 645.368,1254.61 641.201,1256.77 636.5,1258C 606.227,1265.04 575.561,1269.37 544.5,1271C 408.167,1278.33 271.833,1278.33 135.5,1271C 104.42,1269.45 73.7534,1265.12 43.5,1258C 38.9399,1256.47 34.7732,1254.3 31,1251.5C 30.3333,1240.83 30.3333,1230.17 31,1219.5C 35.2887,1194.55 49.7887,1179.38 74.5,1174C 125.092,1171.08 175.425,1165.75 225.5,1158C 247.644,1154.57 269.31,1149.24 290.5,1142C 292.76,1141.45 294.426,1140.28 295.5,1138.5 Z"/></g>
</svg>
